<svg width="32" height="32" viewBox="0 0 32 32" fill="none" xmlns="http://www.w3.org/2000/svg">
<circle cx="16" cy="16" r="16" fill="#333333"/>
<g clip-path="url(#clip0_21_1343)">
<path d="M15.6269 5.33333L10.0601 8.60097L12.1067 9.80812L15.6269 7.74764L19.1471 9.80812L21.1938 8.60097L15.6269 5.33333ZM19.1471 11.5148L21.1938 12.722V15.1363L17.6736 17.1967V21.3177L15.6269 22.5248L13.5803 21.3177V17.1967L10.0601 15.1363V12.722L12.1067 11.5148L15.6269 13.5753L19.1471 11.5148Z" fill="#F0B90B"/>
<path d="M21.1936 16.8429V19.2572L19.147 20.4644V18.0501L21.1936 16.8429Z" fill="#F0B90B"/>
<path d="M19.1265 22.171L22.6467 20.1105V15.9896L24.6934 14.7824V21.3177L19.1265 24.5854V22.171ZM22.6467 11.8686L20.6001 10.6615L22.6467 9.4543L24.6934 10.6615V13.0758L22.6467 14.2829V11.8686ZM13.5801 25.4595V23.0452L15.6267 24.2524L17.6734 23.0452V25.4595L15.6267 26.6667L13.5801 25.4595ZM12.1065 20.4644L10.0599 19.2572V16.8429L12.1065 18.0501V20.4644ZM15.6267 11.8686L13.5801 10.6615L15.6267 9.4543L17.6734 10.6615L15.6267 11.8686ZM10.6534 10.6615L8.60671 11.8686V14.2829L6.56006 13.0758V10.6615L8.60671 9.4543L10.6534 10.6615Z" fill="#F0B90B"/>
<path d="M6.56006 14.7824L8.60671 15.9896V20.1105L12.1269 22.171V24.5854L6.56006 21.3177V14.7824Z" fill="#F0B90B"/>
</g>
<defs>
<clipPath id="clip0_21_1343">
<rect width="18.1333" height="21.3333" fill="white" transform="translate(6.56006 5.33333)"/>
</clipPath>
</defs>
</svg>
