<svg width="25" height="25" viewBox="0 0 25 25" fill="none" xmlns="http://www.w3.org/2000/svg">
<path d="M21.2823 3.67741C21.181 3.57667 21.0532 3.50691 20.9137 3.47636C20.7742 3.4458 20.6288 3.4557 20.4948 3.50491L3.99476 9.50491C3.85246 9.55889 3.72995 9.65487 3.64349 9.78013C3.55704 9.90538 3.51074 10.054 3.51074 10.2062C3.51074 10.3584 3.55704 10.5069 3.64349 10.6322C3.72995 10.7574 3.85246 10.8534 3.99476 10.9074L11.1948 13.7874L14.0748 20.9874C14.1289 21.1235 14.2216 21.2407 14.3416 21.3247C14.4615 21.4086 14.6034 21.4556 14.7498 21.4599C14.9013 21.4568 15.0484 21.4078 15.1716 21.3195C15.2947 21.2311 15.3882 21.1075 15.4398 20.9649L21.4398 4.46491C21.4909 4.33222 21.5032 4.18773 21.4753 4.0483C21.4474 3.90887 21.3805 3.78024 21.2823 3.67741ZM14.7498 18.6099L12.6573 13.3599L16.2498 9.76741L15.1923 8.70991L11.5698 12.3324L6.34976 10.2099L19.4973 5.46241L14.7498 18.6099Z" fill="black"/>
</svg>
