<svg width="25" height="25" viewBox="0 0 25 25" fill="none" xmlns="http://www.w3.org/2000/svg">
<path d="M20.0427 4.87905L20.0481 7.87904L5.04812 7.90599L5.04273 4.90599L20.0427 4.87905ZM20.04 3.37905L5.04004 3.406C4.64221 3.40671 4.26097 3.56543 3.98017 3.84724C3.69937 4.12905 3.54202 4.51086 3.54273 4.90869L3.54812 7.90868C3.54884 8.30651 3.70756 8.68775 3.98937 8.96855C4.27118 9.24935 4.65299 9.4067 5.05082 9.40599L20.0508 9.37904C20.4486 9.37833 20.8299 9.21961 21.1107 8.9378C21.3915 8.65599 21.5488 8.27417 21.5481 7.87635L21.5427 4.87635C21.542 4.47853 21.3833 4.09728 21.1015 3.81648C20.8197 3.53569 20.4378 3.37834 20.04 3.37905V3.37905Z" fill="#002169"/>
<path d="M8.05542 12.4006L8.06889 19.9006L5.0689 19.906L5.05543 12.406L8.05542 12.4006ZM8.05273 10.9006L5.05273 10.906C4.65491 10.9067 4.27366 11.0654 3.99286 11.3472C3.71206 11.6291 3.55471 12.0109 3.55543 12.4087L3.5689 19.9087C3.56962 20.3065 3.72834 20.6877 4.01015 20.9685C4.29196 21.2493 4.67377 21.4067 5.07159 21.406L8.07159 21.4006C8.46941 21.3999 8.85066 21.2412 9.13146 20.9593C9.41226 20.6775 9.56961 20.2957 9.56889 19.8979L9.55542 12.3979C9.5547 12.0001 9.39598 11.6188 9.11417 11.338C8.83237 11.0572 8.45055 10.8999 8.05273 10.9006Z" fill="#002169"/>
<path d="M20.0554 12.3791L20.0689 19.8791L12.5689 19.8926L12.5554 12.3926L20.0554 12.3791ZM20.0527 10.8791L12.5527 10.8926C12.1549 10.8933 11.7737 11.052 11.4929 11.3338C11.2121 11.6156 11.0547 11.9974 11.0554 12.3953L11.0689 19.8952C11.0696 20.2931 11.2283 20.6743 11.5101 20.9551C11.792 21.2359 12.1738 21.3933 12.5716 21.3926L20.0716 21.3791C20.4694 21.3784 20.8507 21.2196 21.1315 20.9378C21.4122 20.656 21.5696 20.2742 21.5689 19.8764L21.5554 12.3764C21.5547 11.9786 21.396 11.5973 21.1142 11.3165C20.8324 11.0357 20.4505 10.8784 20.0527 10.8791Z" fill="#002169"/>
</svg>
