<svg width="25" height="25" viewBox="0 0 25 25" fill="none" xmlns="http://www.w3.org/2000/svg">
<path d="M6.5 7.20996C5.90666 7.20996 5.32664 7.03402 4.83329 6.70437C4.33994 6.37473 3.95543 5.90619 3.72836 5.35801C3.5013 4.80983 3.44189 4.20663 3.55765 3.62469C3.6734 3.04275 3.95912 2.5082 4.37868 2.08864C4.79824 1.66908 5.33279 1.38336 5.91473 1.26761C6.49667 1.15185 7.09987 1.21126 7.64805 1.43832C8.19623 1.66539 8.66477 2.0499 8.99441 2.54325C9.32405 3.0366 9.5 3.61662 9.5 4.20996C9.5 5.00561 9.18393 5.76867 8.62132 6.33128C8.05871 6.89389 7.29565 7.20996 6.5 7.20996ZM6.5 2.70996C6.20333 2.70996 5.91332 2.79794 5.66665 2.96276C5.41997 3.12758 5.22771 3.36185 5.11418 3.63594C5.00065 3.91003 4.97095 4.21163 5.02882 4.5026C5.0867 4.79357 5.22956 5.06084 5.43934 5.27062C5.64912 5.4804 5.91639 5.62326 6.20737 5.68114C6.49834 5.73902 6.79994 5.70931 7.07403 5.59578C7.34812 5.48225 7.58238 5.28999 7.74721 5.04332C7.91203 4.79664 8 4.50663 8 4.20996C8 3.81214 7.84197 3.43061 7.56066 3.1493C7.27936 2.868 6.89783 2.70996 6.5 2.70996Z" fill="black"/>
<path d="M18.5 7.20996C17.9067 7.20996 17.3266 7.03402 16.8333 6.70437C16.3399 6.37473 15.9554 5.90619 15.7284 5.35801C15.5013 4.80983 15.4419 4.20663 15.5576 3.62469C15.6734 3.04275 15.9591 2.5082 16.3787 2.08864C16.7982 1.66908 17.3328 1.38336 17.9147 1.26761C18.4967 1.15185 19.0999 1.21126 19.6481 1.43832C20.1962 1.66539 20.6648 2.0499 20.9944 2.54325C21.3241 3.0366 21.5 3.61662 21.5 4.20996C21.5 5.00561 21.1839 5.76867 20.6213 6.33128C20.0587 6.89389 19.2957 7.20996 18.5 7.20996ZM18.5 2.70996C18.2033 2.70996 17.9133 2.79794 17.6666 2.96276C17.42 3.12758 17.2277 3.36185 17.1142 3.63594C17.0007 3.91003 16.9709 4.21163 17.0288 4.5026C17.0867 4.79357 17.2296 5.06084 17.4393 5.27062C17.6491 5.4804 17.9164 5.62326 18.2074 5.68114C18.4983 5.73902 18.7999 5.70931 19.074 5.59578C19.3481 5.48225 19.5824 5.28999 19.7472 5.04332C19.912 4.79664 20 4.50663 20 4.20996C20 3.81214 19.842 3.43061 19.5607 3.1493C19.2794 2.868 18.8978 2.70996 18.5 2.70996Z" fill="black"/>
<path d="M20 22.96H17C16.6022 22.96 16.2206 22.8019 15.9393 22.5206C15.658 22.2393 15.5 21.8578 15.5 21.46V16.21H17V21.46H20V14.71H21.5V10.21C21.5 10.011 21.421 9.82028 21.2803 9.67963C21.1397 9.53898 20.9489 9.45996 20.75 9.45996H15.935L12.5 15.46L9.065 9.45996H4.25C4.05109 9.45996 3.86032 9.53898 3.71967 9.67963C3.57902 9.82028 3.5 10.011 3.5 10.21V14.71H5V21.46H8V16.21H9.5V21.46C9.5 21.8578 9.34196 22.2393 9.06066 22.5206C8.77936 22.8019 8.39782 22.96 8 22.96H5C4.60218 22.96 4.22064 22.8019 3.93934 22.5206C3.65804 22.2393 3.5 21.8578 3.5 21.46V16.21C3.10218 16.21 2.72064 16.0519 2.43934 15.7706C2.15804 15.4893 2 15.1078 2 14.71V10.21C2 9.61322 2.23705 9.04093 2.65901 8.61897C3.08097 8.19701 3.65326 7.95996 4.25 7.95996H9.935L12.5 12.46L15.065 7.95996H20.75C21.3467 7.95996 21.919 8.19701 22.341 8.61897C22.7629 9.04093 23 9.61322 23 10.21V14.71C23 15.1078 22.842 15.4893 22.5607 15.7706C22.2794 16.0519 21.8978 16.21 21.5 16.21V21.46C21.5 21.8578 21.342 22.2393 21.0607 22.5206C20.7794 22.8019 20.3978 22.96 20 22.96Z" fill="black"/>
</svg>
