<svg width="17" height="17" viewBox="0 0 96 96" fill="none" xmlns="http://www.w3.org/2000/svg">
<g clip-path="url(#clip0_1179_3028)">
<path d="M95.5713 41.5857H67.7044L62.5807 48.253L55.5355 57.3284L51.3276 62.7724L48.0677 66.974L43.8662 72.4051L48.0997 77.8299L52.3332 72.3987L55.5804 68.1972L59.7947 62.7532L71.0029 48.253H88.4557C88.416 54.3221 87.0095 60.3041 84.3406 65.7549C81.6718 71.2058 77.8091 75.9853 73.0396 79.7385C71.2904 81.1199 69.4311 82.3558 67.4803 83.434C63.8267 85.4395 59.8867 86.8717 55.7981 87.6804C50.7372 88.6556 45.5381 88.6707 40.4717 87.7251C38.1154 87.2774 35.8045 86.6173 33.5674 85.7526C29.7812 84.2985 26.2358 82.2817 23.0509 79.7705C21.5775 78.597 20.1806 77.3306 18.8686 75.979C11.6981 68.5229 7.66507 58.5975 7.60274 48.253H25.0299L32.7156 58.097L36.2766 62.67L40.5165 68.0884L44.7308 62.6444L47.9716 58.4493L52.1859 53.0117L55.8622 48.253L60.9859 41.5857L65.0977 36.2827H94.5593C93.4858 32.0209 91.833 27.9265 89.6469 24.1138C88.4792 22.0864 87.1648 20.147 85.7144 18.3111C84.5992 16.8909 83.3994 15.5391 82.1214 14.2633C79.2385 11.3306 75.9877 8.7838 72.4503 6.68647C64.1835 1.77659 54.6294 -0.529195 45.0331 0.0694306C35.4368 0.668056 26.2434 4.14332 18.6508 10.0425C15.5099 12.4829 12.6794 15.2985 10.2223 18.4263C8.77734 20.2724 7.46739 22.2202 6.3026 24.2547C5.31092 25.9724 4.43576 27.7546 3.68307 29.5897C2.77446 31.752 2.03362 33.9811 1.46707 36.2571H30.6533L34.7907 41.5602L39.9977 48.2274L40.1578 48.4324L40.3179 48.2274L44.3657 42.9884L43.2513 41.5602L39.1074 36.2571L33.9004 29.5897H11.9836C13.6996 26.2916 15.854 23.2409 18.3883 20.5207C19.909 18.8841 21.5605 17.3739 23.3263 16.0053C29.5965 11.1481 37.1592 8.24666 45.0692 7.66344C52.9792 7.08021 60.8857 8.84117 67.8005 12.7262C69.4385 13.6485 71.0114 14.682 72.508 15.8196C75.7298 18.2861 78.5699 21.2148 80.9365 24.5108C82.087 26.1282 83.1207 27.8254 84.03 29.5897H61.8249L56.6627 36.2571L52.5573 41.5602L43.7061 52.9989L40.4589 57.2004L36.8979 52.6273L33.4585 48.2274L28.2643 41.5602H0.455113C0.16148 43.6824 0.0159602 45.8224 0.0195978 47.9649V48.2146C0.0803231 57.4969 2.82601 66.5632 7.92536 74.3197C13.0247 82.0761 20.2598 88.1911 28.7575 91.9266C38.8967 96.3679 50.2587 97.1711 60.9219 94.2003C63.1765 93.5763 65.3799 92.7798 67.5123 91.8178C69.1112 91.1075 70.6699 90.31 72.1813 89.4289C74.1056 88.3013 75.9502 87.0429 77.7022 85.6628C83.3789 81.2033 87.9753 75.5193 91.1481 69.035C94.321 62.5507 95.9884 55.4334 96.026 48.2146V47.9649C96.0221 45.8305 95.8702 43.6989 95.5713 41.5857V41.5857Z" fill="white"/>
</g>
<defs>
<clipPath id="clip0_1179_3028">
<rect width="96" height="96" fill="white"/>
</clipPath>
</defs>
</svg>
