<svg width="14" height="26" viewBox="0 0 14 26" fill="none" xmlns="http://www.w3.org/2000/svg">
<path fill-rule="evenodd" clip-rule="evenodd" d="M3.90231 5.88787C2.18797 8.80881 0.792789 11.2053 0.801951 11.2134C0.811113 11.2214 2.2129 10.5788 3.91703 9.78529L7.01544 8.34257L10.0501 9.74831C11.7191 10.5215 13.1279 11.1761 13.1807 11.203C13.2652 11.246 13.2615 11.226 13.1499 11.037C12.8539 10.536 7.11442 0.746921 7.06911 0.665941C7.0283 0.593014 6.45811 1.53325 3.90231 5.88787ZM4.3928 11.1965C2.95016 11.8668 1.66173 12.4659 1.52955 12.528L1.28924 12.6407L4.13296 13.9614C5.69701 14.6878 6.99922 15.2811 7.02675 15.2801C7.11757 15.2764 12.635 12.6893 12.6515 12.6426C12.6603 12.6175 12.0856 12.3277 11.3742 11.9985C10.6628 11.6694 9.3911 11.0801 8.54825 10.689L7.01569 9.97794L4.3928 11.1965ZM3.48832 19.6865C5.40693 22.9794 6.99526 25.6684 7.01799 25.6621C7.06105 25.6501 14.0245 13.7392 13.9999 13.7196C13.9922 13.7135 12.4322 14.4347 10.5332 15.3223C8.63431 16.21 7.05224 16.9362 7.01754 16.9362C6.98285 16.9362 5.50631 16.2595 3.73634 15.4325C1.96638 14.6054 0.401626 13.8771 0.259089 13.8141L0 13.6995L3.48832 19.6865Z" fill="#4368E8"/>
</svg>
