<svg width="8" height="17" viewBox="0 0 8 17" fill="none" xmlns="http://www.w3.org/2000/svg">
<path fill-rule="evenodd" clip-rule="evenodd" d="M2.22989 3.55352C1.25027 5.53976 0.453022 7.16938 0.458257 7.17486C0.463493 7.18034 1.26451 6.74334 2.2383 6.20376L4.00882 5.22271L5.74289 6.17862C6.69663 6.70437 7.50165 7.14951 7.53183 7.16781C7.58013 7.19706 7.57798 7.18344 7.51421 7.05494C7.3451 6.71426 4.06538 0.0576721 4.03949 0.00260546C4.01617 -0.0469846 3.69035 0.592376 2.22989 3.55352ZM2.51017 7.1634C1.68581 7.61916 0.949558 8.02657 0.87403 8.06878L0.736707 8.14545L2.36169 9.04352C3.25543 9.53745 3.99955 9.94094 4.01529 9.94021C4.06718 9.93771 7.22 8.17851 7.22941 8.14676C7.23447 8.12969 6.90604 7.9326 6.49954 7.70876C6.09304 7.48495 5.36634 7.08423 4.88471 6.81828L4.00896 6.33477L2.51017 7.1634ZM1.99332 12.9366C3.08967 15.1758 3.99729 17.0043 4.01028 17C4.03488 16.9918 8.01401 8.89241 7.99996 8.87912C7.99553 8.87494 7.1041 9.36537 6.019 9.96896C4.93389 10.5726 4.02985 11.0664 4.01002 11.0664C3.9902 11.0664 3.14646 10.6063 2.13505 10.0438C1.12364 9.48144 0.2295 8.98621 0.148051 8.94337L0 8.86543L1.99332 12.9366Z" fill="#F6FAFF"/>
</svg>
