<svg width="22" height="22" viewBox="0 0 22 22" fill="none" xmlns="http://www.w3.org/2000/svg">
<path d="M10.6103 18.6323C14.923 18.6323 18.4191 15.1362 18.4191 10.8235C18.4191 6.51077 14.923 3.01465 10.6103 3.01465C6.29764 3.01465 2.80151 6.51077 2.80151 10.8235C2.80151 15.1362 6.29764 18.6323 10.6103 18.6323Z" stroke="#A7B2C8" stroke-width="2.08235" stroke-miterlimit="10"/>
<path d="M17.6188 14.2701L13.203 11.5542C13.1256 11.5066 13.0391 11.4757 12.949 11.4636L11.0929 11.2134C10.9535 11.1946 10.8118 11.2214 10.689 11.2899C10.5662 11.3585 10.4689 11.4649 10.4116 11.5934L9.29732 14.0937C9.2455 14.21 9.22892 14.3389 9.24964 14.4645C9.27036 14.5901 9.32747 14.7068 9.41388 14.8003L10.9431 16.4544C11.0124 16.5294 11.0631 16.6196 11.0911 16.7178C11.1191 16.816 11.1236 16.9195 11.1042 17.0197L10.7927 18.63C12.3676 18.5425 15.9376 17.548 17.6188 14.2701Z" fill="#A7B2C8" stroke="#A7B2C8" stroke-width="1.38823" stroke-linecap="round" stroke-linejoin="round"/>
<path d="M12.5987 3.27048L13.3579 4.63039C13.4297 4.75895 13.4558 4.90805 13.4318 5.05332C13.4079 5.1986 13.3354 5.33148 13.2262 5.43024L11.0372 7.4099C11.0001 7.44349 10.9592 7.47269 10.9153 7.49691L9.91958 8.0468C9.82326 8.1 9.71502 8.12789 9.605 8.12789H7.86872C7.74068 8.12789 7.61549 8.16567 7.50881 8.23648C7.40214 8.3073 7.31873 8.40801 7.26902 8.52601L6.59167 10.134" fill="#A7B2C8"/>
<path d="M5.48084 4.9345L4.7533 6.65486C4.68843 6.80825 4.68484 6.98068 4.74327 7.13664L5.67796 9.63124C5.71624 9.7334 5.77958 9.82429 5.86217 9.89557C5.94475 9.96684 6.04393 10.0162 6.15059 10.0391L7.89374 10.4138C7.99046 10.4346 8.08117 10.4771 8.15897 10.5383C8.23677 10.5994 8.29962 10.6774 8.34272 10.7665L8.65228 11.406C8.70555 11.516 8.78875 11.6088 8.89234 11.6738C8.99594 11.7387 9.11573 11.7732 9.238 11.7732H10.3306" fill="#A7B2C8"/>
<path d="M12.5987 3.27048L13.3579 4.63039C13.4297 4.75895 13.4558 4.90805 13.4318 5.05332C13.4079 5.1986 13.3354 5.33148 13.2262 5.43024L11.0372 7.4099C11.0001 7.44349 10.9592 7.47269 10.9153 7.49691L9.91958 8.0468C9.82326 8.1 9.71502 8.12789 9.605 8.12789H7.86872C7.74068 8.12789 7.61549 8.16567 7.50881 8.23648C7.40214 8.3073 7.31873 8.40801 7.26902 8.52601L6.59167 10.134L6.15059 10.0391C6.04393 10.0162 5.94475 9.96684 5.86217 9.89557C5.77958 9.82429 5.71624 9.7334 5.67796 9.63124L4.74327 7.13664C4.68484 6.98068 4.68843 6.80825 4.7533 6.65486L5.48084 4.9345C6.34749 4.03137 8.98438 2.43419 12.5987 3.27048Z" fill="#A7B2C8"/>
<path d="M6.15059 10.0391C6.04393 10.0162 5.94475 9.96684 5.86217 9.89557C5.77958 9.82429 5.71624 9.7334 5.67796 9.63124L4.74327 7.13664C4.68484 6.98068 4.68843 6.80825 4.7533 6.65486L5.48084 4.9345C6.34749 4.03137 8.98438 2.43419 12.5987 3.27048L13.3579 4.63039C13.4297 4.75895 13.4558 4.90805 13.4318 5.05332C13.4079 5.1986 13.3354 5.33148 13.2262 5.43024L11.0372 7.4099C11.0001 7.44349 10.9592 7.47269 10.9153 7.49691L9.91957 8.0468C9.82326 8.1 9.71503 8.12789 9.605 8.12789H7.86872C7.74068 8.12789 7.61549 8.16567 7.50881 8.23648C7.40214 8.3073 7.31873 8.40801 7.26902 8.52601L6.59167 10.134L6.15059 10.0391ZM6.15059 10.0391L7.89374 10.4138C7.99046 10.4346 8.08117 10.4771 8.15897 10.5383C8.23677 10.5994 8.29962 10.6774 8.34272 10.7665L8.65228 11.406C8.70555 11.516 8.78875 11.6088 8.89234 11.6738C8.99594 11.7387 9.11573 11.7732 9.238 11.7732H10.3306" stroke="#A7B2C8" stroke-width="1.38823" stroke-linecap="round" stroke-linejoin="round"/>
</svg>
