<svg width="12" height="13" viewBox="0 0 12 13" fill="none" xmlns="http://www.w3.org/2000/svg">
<g clip-path="url(#clip0_101_1394)">
<path d="M7.43678 3.1543V3.89798H9.88568L6.6931 7.09056L5.09679 5.49429C5.06227 5.45975 5.02129 5.43234 4.97618 5.41365C4.93108 5.39495 4.88273 5.38533 4.8339 5.38533C4.78507 5.38533 4.73672 5.39495 4.69161 5.41365C4.6465 5.43234 4.60552 5.45975 4.571 5.49429L0.743652 9.3216L1.26947 9.84742L4.8339 6.283L6.43021 7.87927C6.46472 7.91382 6.5057 7.94122 6.55081 7.95991C6.59592 7.97861 6.64427 7.98823 6.6931 7.98823C6.74193 7.98823 6.79028 7.97861 6.83539 7.95991C6.88049 7.94122 6.92148 7.91382 6.95599 7.87927L10.4115 4.4238V6.8727H11.1552V3.1543H7.43678Z" fill="#50EC83"/>
</g>
<defs>
<clipPath id="clip0_101_1394">
<rect width="11.8989" height="11.8989" fill="white" transform="translate(0 0.179688)"/>
</clipPath>
</defs>
</svg>
