<svg width="24" height="25" viewBox="0 0 24 25" fill="none" xmlns="http://www.w3.org/2000/svg">
<path d="M14.25 11.1364C14.695 11.1364 15.13 11.0044 15.5 10.7572C15.87 10.5099 16.1584 10.1585 16.3287 9.74739C16.499 9.33626 16.5436 8.88386 16.4568 8.4474C16.37 8.01094 16.1557 7.61003 15.841 7.29536C15.5263 6.9807 15.1254 6.7664 14.689 6.67959C14.2525 6.59277 13.8001 6.63733 13.389 6.80762C12.9778 6.97792 12.6264 7.26631 12.3792 7.63632C12.132 8.00633 12 8.44135 12 8.88635C12 9.48309 12.2371 10.0554 12.659 10.4773C13.081 10.8993 13.6533 11.1364 14.25 11.1364ZM14.25 8.13635C14.3983 8.13635 14.5433 8.18034 14.6667 8.26275C14.79 8.34516 14.8861 8.4623 14.9429 8.59934C14.9997 8.73639 15.0145 8.88719 14.9856 9.03267C14.9567 9.17816 14.8852 9.31179 14.7803 9.41668C14.6754 9.52157 14.5418 9.593 14.3963 9.62194C14.2508 9.65088 14.1 9.63603 13.963 9.57926C13.8259 9.5225 13.7088 9.42637 13.6264 9.30303C13.544 9.17969 13.5 9.03469 13.5 8.88635C13.5 8.68744 13.579 8.49668 13.7197 8.35602C13.8603 8.21537 14.0511 8.13635 14.25 8.13635Z" fill="#2F497F"/>
<path d="M19.5 3.63635H4.5C4.10218 3.63635 3.72064 3.79439 3.43934 4.07569C3.15804 4.357 3 4.73853 3 5.13635V20.1364C3 20.5342 3.15804 20.9157 3.43934 21.197C3.72064 21.4783 4.10218 21.6364 4.5 21.6364H19.5C19.8978 21.6364 20.2794 21.4783 20.5607 21.197C20.842 20.9157 21 20.5342 21 20.1364V5.13635C21 4.73853 20.842 4.357 20.5607 4.07569C20.2794 3.79439 19.8978 3.63635 19.5 3.63635ZM19.5 20.1364H4.5V15.6364L8.25 11.8864L12.4425 16.0789C12.7235 16.3582 13.1037 16.515 13.5 16.515C13.8963 16.515 14.2765 16.3582 14.5575 16.0789L15.75 14.8864L19.5 18.6364V20.1364ZM19.5 16.5139L16.8075 13.8214C16.5265 13.542 16.1463 13.3852 15.75 13.3852C15.3537 13.3852 14.9735 13.542 14.6925 13.8214L13.5 15.0139L9.3075 10.8214C9.02646 10.542 8.64628 10.3852 8.25 10.3852C7.85372 10.3852 7.47354 10.542 7.1925 10.8214L4.5 13.5139V5.13635H19.5V16.5139Z" fill="#2F497F"/>
</svg>
