<svg width="15" height="13" viewBox="0 0 15 13" fill="none" xmlns="http://www.w3.org/2000/svg">
<path d="M10.8411 1.5C11.2051 1.49969 11.5656 1.57207 11.9013 1.71287C12.237 1.85368 12.5412 2.06009 12.7961 2.32C13.3213 2.85319 13.6157 3.57158 13.6157 4.32C13.6157 5.06842 13.3213 5.78681 12.7961 6.32L7.6161 11.565L2.4361 6.32C1.91089 5.78681 1.61649 5.06842 1.61649 4.32C1.61649 3.57158 1.91089 2.85319 2.4361 2.32C2.69114 2.06028 2.99539 1.85398 3.33105 1.71315C3.66672 1.57232 4.02709 1.49979 4.3911 1.49979C4.75511 1.49979 5.11548 1.57232 5.45114 1.71315C5.78681 1.85398 6.09105 2.06028 6.3461 2.32L7.6161 3.62L8.8811 2.33C9.13522 2.06699 9.43977 1.85793 9.77654 1.71532C10.1133 1.57271 10.4754 1.49948 10.8411 1.5ZM10.8411 0.500001C10.3439 0.49958 9.85164 0.598429 9.39316 0.790752C8.93467 0.983076 8.5192 1.265 8.1711 1.62L7.6161 2.18L7.0611 1.62C6.71257 1.26564 6.297 0.984206 5.83859 0.792096C5.38019 0.599987 4.88813 0.501049 4.3911 0.501049C3.89407 0.501049 3.40201 0.599987 2.9436 0.792096C2.4852 0.984206 2.06962 1.26564 1.7211 1.62C1.01204 2.34181 0.614746 3.31318 0.614746 4.325C0.614746 5.33682 1.01204 6.30819 1.7211 7.03L7.6161 13L13.5111 7.03C14.2202 6.30819 14.6175 5.33682 14.6175 4.325C14.6175 3.31318 14.2202 2.34181 13.5111 1.62C13.1627 1.26545 12.7471 0.983823 12.2887 0.791532C11.8303 0.599241 11.3382 0.500138 10.8411 0.500001Z" fill="#002169"/>
</svg>
