<svg width="24" height="24" viewBox="0 0 24 24" fill="none" xmlns="http://www.w3.org/2000/svg">
<path d="M12.25 14C11.5083 14 10.7833 13.7801 10.1666 13.368C9.54993 12.956 9.06928 12.3703 8.78545 11.6851C8.50162 10.9998 8.42736 10.2458 8.57206 9.51841C8.71675 8.79098 9.0739 8.1228 9.59835 7.59835C10.1228 7.0739 10.791 6.71675 11.5184 6.57206C12.2458 6.42736 12.9998 6.50162 13.6851 6.78545C14.3703 7.06928 14.956 7.54993 15.368 8.16661C15.7801 8.7833 16 9.50832 16 10.25C15.9989 11.2442 15.6034 12.1974 14.9004 12.9004C14.1974 13.6034 13.2442 13.9989 12.25 14ZM12.25 8C11.805 8 11.37 8.13196 11 8.3792C10.63 8.62643 10.3416 8.97783 10.1713 9.38896C10.001 9.8001 9.95642 10.2525 10.0432 10.689C10.1301 11.1254 10.3443 11.5263 10.659 11.841C10.9737 12.1557 11.3746 12.37 11.811 12.4568C12.2475 12.5436 12.6999 12.499 13.111 12.3287C13.5222 12.1584 13.8736 11.87 14.1208 11.5C14.368 11.13 14.5 10.695 14.5 10.25C14.4993 9.65347 14.2621 9.08155 13.8403 8.65974C13.4185 8.23792 12.8465 8.00066 12.25 8Z" fill="#A7B2C8"/>
<path d="M12.25 23L5.92338 15.5385C5.88746 15.4957 5.66223 15.1999 5.66223 15.1999C4.58141 13.7763 3.99748 12.0374 4.00001 10.25C4.00001 8.06196 4.8692 5.96354 6.41638 4.41637C7.96355 2.86919 10.062 2 12.25 2C14.438 2 16.5365 2.86919 18.0836 4.41637C19.6308 5.96354 20.5 8.06196 20.5 10.25C20.5027 12.0367 19.9192 13.7749 18.8389 15.198L18.8378 15.1999C18.8378 15.1999 18.6128 15.4956 18.5793 15.5354L12.25 23ZM6.85938 14.2963C6.86013 14.2968 7.03443 14.5274 7.07433 14.577L12.25 20.6809L17.4325 14.5684C17.4654 14.527 17.6412 14.2948 17.6416 14.2942C18.5246 13.131 19.0017 11.7103 19 10.25C19 8.45979 18.2888 6.7429 17.023 5.47703C15.7571 4.21116 14.0402 3.5 12.25 3.5C10.4598 3.5 8.74291 4.21116 7.47704 5.47703C6.21117 6.7429 5.50001 8.45979 5.50001 10.25C5.49835 11.7111 5.97587 13.1325 6.85938 14.2963Z" fill="#A7B2C8"/>
</svg>
