<svg width="91" height="20" viewBox="0 0 91 20" fill="none" xmlns="http://www.w3.org/2000/svg">
<g clip-path="url(#clip0_2_21)">
<path d="M27.3035 0.452393L24.6378 9.93817C24.2877 11.1793 24.0095 12.4382 23.8031 13.7148C23.8031 13.7237 23.8031 13.7325 23.8031 13.7325H23.7222C23.6505 13.0233 23.462 12.3141 23.3453 11.7113L20.4103 0.452393H14.4057L11.4887 11.7024C11.372 12.3053 11.1835 13.0144 11.1117 13.7237H11.0309C11.0309 13.7148 11.0309 13.7059 11.0309 13.7059C10.8245 12.4293 10.5463 11.1705 10.1962 9.92934L7.53942 0.452393H3.28503L4.53263 4.91161H0V8.1031H5.42121L6.30978 11.2768H0V14.4773H7.19835L8.62549 19.5925H13.7056L17.1432 6.17934C17.2509 5.68289 17.3496 5.14211 17.3766 4.7609H17.4573C17.4843 5.13324 17.583 5.68289 17.6907 6.17934L21.1284 19.5925H26.2085L31.5578 0.452393H27.3035Z" fill="#053F33"/>
<path d="M38.5407 0.452393H34.017V19.5925H38.5407V0.452393Z" fill="#053F33"/>
<path d="M41.9875 0.452393V19.5925H46.1431V4.24672H53.0363V0.452393H41.9875Z" fill="#053F33"/>
<path d="M71.2208 5.91312C70.8618 4.75177 70.3233 3.73227 69.6053 2.85461C68.8872 1.97695 67.9717 1.27659 66.8587 0.771277C65.7548 0.257092 64.3546 0 62.8467 0C61.4376 0 60.0912 0.239362 58.9783 0.718085C57.8653 1.19681 56.9229 1.8617 56.1599 2.7305C55.397 3.59929 54.8046 4.63652 54.4008 5.85992C53.9969 7.08333 53.7904 8.44858 53.7904 9.9645C53.7904 11.4983 53.9969 12.8901 54.4187 14.1223C54.8406 15.3546 55.4419 16.4007 56.2138 17.2695C56.9946 18.1383 57.946 18.8032 59.068 19.2819C60.1899 19.7607 61.5632 20 62.9903 20C64.7944 20 66.4728 19.6897 67.846 19.0602C69.2193 18.4397 70.2964 17.5709 71.0862 16.4717L68.5282 13.6436C67.9358 14.3972 67.2627 15.0088 66.5087 15.4964C65.7548 15.9841 64.6957 16.2234 63.5109 16.2234C61.9581 16.2234 60.6028 15.8067 59.813 14.9734C59.077 14.1932 58.682 13.1737 58.6282 11.9149H71.7324L71.7593 9.6365C71.7593 8.3156 71.5799 7.07447 71.2208 5.91312ZM67.2178 8.07624H58.6282V7.97872C58.6282 6.6578 58.9962 5.95745 59.7411 5.12412C60.4861 4.29078 61.6619 3.82092 62.9274 3.82092C64.1931 3.82092 65.3688 4.29078 66.1137 5.12412C66.8587 5.95745 67.2267 6.6578 67.2267 7.97872V8.07624H67.2178Z" fill="#053F33"/>
<path d="M71.6069 19.5925L78.2309 9.84959L71.7864 0.452393H77.2076L81.2018 6.76445H81.3543L85.3035 0.452393H90.3566L83.8043 9.9205L90.4284 19.5836H85.0071L80.9056 12.9613H80.753L76.6602 19.5925H71.6069Z" fill="#053F33"/>
</g>
<defs>
<clipPath id="clip0_2_21">
<rect width="90.6407" height="20" fill="white"/>
</clipPath>
</defs>
</svg>
