<svg width="195" height="83" viewBox="0 0 509 83" fill="none" xmlns="http://www.w3.org/2000/svg">
<g clip-path="url(#clip0_1168_3015)">
<path d="M13.432 33.6916V44.7505L19.7917 48.3803L29.3917 53.8578L43.0654 61.662L52.6569 67.1395L62.153 61.5052L75.6889 53.4595L85.1935 47.8251L98.7378 39.7773L105.897 35.5224V51.4613L98.8778 55.6378L89.3817 61.2721L75.8373 69.3199L66.3412 74.9522L52.7884 83L39.1041 75.1874L29.521 69.7098L15.8389 61.9057L13.432 60.5347L6.24732 56.4281L0 52.8598V17.2505L6.01194 13.6822L13.432 17.918L29.1478 26.8855L42.83 34.6981L52.4237 40.1756L61.9198 34.5328L75.462 26.4956L83.4376 21.7639L73.8482 16.2864L65.8726 21.018L52.3261 29.0638L38.6439 21.2511L15.508 8.04784L29.0524 0L52.1883 13.2033L60.1639 8.47376L73.7082 0.434389L87.3904 8.23855L96.982 13.7161L105.897 18.8037V24.3597L97.1134 29.5681L89.1463 34.3082L75.602 42.3476L66.1059 47.9904L52.5615 56.0276L38.8793 48.215L29.2878 42.746L15.6035 34.9333L13.432 33.6916Z" fill="#3156DB"/>
<path d="M158.259 58.3926C154.064 58.3926 150.371 57.4743 147.179 55.6379C144.018 53.8318 141.452 51.1451 139.795 47.9058C138.066 44.5931 137.201 40.7847 137.201 36.4803C137.201 32.2127 138.094 28.4035 139.879 25.0528C141.586 21.7788 144.192 19.059 147.391 17.2126C150.613 15.3436 154.273 14.4092 158.373 14.4092C163.002 14.4092 166.918 15.528 170.122 17.7656C173.325 20.0032 175.512 23.0666 176.683 26.9556L168.321 28.7397C166.625 24.2263 163.232 21.9696 158.142 21.9696C155.706 21.9696 153.571 22.6053 151.736 23.8767C149.887 25.1622 148.446 26.9507 147.584 29.0301C146.649 31.2027 146.182 33.6572 146.182 36.3935C146.182 40.7374 147.287 44.2732 149.496 47.001C151.706 49.7289 154.664 51.0927 158.369 51.0927C160.75 51.0927 162.795 50.4839 164.504 49.2662C166.213 48.0485 167.486 46.3731 168.321 44.24L176.852 45.7974C175.644 49.743 173.414 52.8296 170.164 55.0573C166.914 57.2851 162.945 58.3968 158.259 58.3926Z" fill="#3156DB"/>
<path d="M182.097 57.5727V15.2314H190.286V26.6464C190.286 27.7044 190.249 28.9694 190.174 30.4414C192.271 27.6472 195.388 26.2501 199.526 26.2501C203.079 26.2501 205.814 27.3096 207.733 29.4285C209.651 31.5475 210.61 34.6772 210.608 38.8177V57.5663H202.474V42.6678C202.474 39.2521 201.992 36.7934 201.029 35.2918C200.067 33.7901 198.611 33.0407 196.663 33.0435C194.473 33.0435 192.863 33.8085 191.832 35.3384C190.802 36.8683 190.286 39.209 190.286 42.3606V57.5706L182.097 57.5727Z" fill="#3156DB"/>
<path d="M227.471 58.1384C224.033 58.1384 221.317 57.3311 219.324 55.7165C217.331 54.1018 216.334 51.86 216.334 48.9909C216.334 46.2532 217.236 44.1808 219.04 42.7738C220.844 41.3668 223.89 40.2671 228.18 39.4746L233.17 38.5401C234.586 38.2752 235.417 38.0697 235.663 37.9171C236.041 37.653 236.23 37.1903 236.23 36.5292C236.251 35.9426 236.133 35.3592 235.884 34.8274C235.635 34.2957 235.263 33.8309 234.798 33.4716C233.844 32.7144 232.507 32.3365 230.788 32.3379C228.994 32.3379 227.605 32.7772 226.621 33.6559C225.637 34.5345 225.089 35.7353 224.978 37.2581L217.326 36.8047C217.554 33.6517 218.867 31.1308 221.264 29.2421C223.662 27.3534 226.875 26.4097 230.903 26.4111C235.285 26.4111 238.568 27.3739 240.751 29.2993C242.934 31.2248 244.025 34.2075 244.025 38.2477V56.1191C244.025 56.403 244.025 56.7039 244.053 57.026C244.08 57.3481 244.08 57.5261 244.08 57.5642H237.165C237.119 57.0464 237.1 56.5266 237.11 56.0068V54.8456H237.061C234.799 57.0408 231.602 58.1384 227.471 58.1384ZM229.514 52.7584C231.703 52.7584 233.4 52.1587 234.603 50.9594C235.806 49.7601 236.406 48.0182 236.401 45.734V44.63C236.401 43.9887 236.44 43.5825 236.516 43.4116C236.08 43.5246 235.67 43.6235 235.284 43.7083C234.898 43.7931 234.416 43.8877 233.838 43.9922C233.261 44.0953 232.745 44.1943 232.292 44.2889C229.362 44.8766 227.502 45.33 226.71 45.6493C225.425 46.196 224.688 47.0266 224.498 48.1412C224.459 48.385 224.44 48.6316 224.441 48.8786C224.441 50.1245 224.881 51.0823 225.76 51.7519C226.639 52.4215 227.891 52.7542 229.514 52.7499V52.7584Z" fill="#3156DB"/>
<path d="M251.591 57.5726V32.6768C251.591 30.1341 251.573 28.2652 251.536 27.0701H259.272V28.458C259.272 29.7605 259.254 30.7231 259.217 31.3461H259.387C260.953 28.0236 263.834 26.3623 268.03 26.3623C268.608 26.3643 269.185 26.4025 269.759 26.4767L269.646 34.0944C268.947 33.8867 268.221 33.7818 267.492 33.7829C264.582 33.7829 262.551 34.6185 261.399 36.2897C260.247 37.9609 259.67 40.7593 259.669 44.685V57.5726H251.591Z" fill="#3156DB"/>
<path d="M274.691 22.872V15.2246H282.939V22.872H274.691ZM274.691 57.5659V27.0527H282.939V57.5659H274.691Z" fill="#3156DB"/>
<path d="M305.981 57.5727H296.288C295.06 56.8777 294.143 55.741 293.724 54.3942C293.261 52.9957 293.029 50.8428 293.029 47.9356V33.3147H288.041V27.0553H293.029V18.7002H301.163V27.0553H307.254V33.3147H301.159V45.4924C301.139 47.0742 301.239 48.6553 301.458 50.222C301.655 51.4934 301.98 52.5126 302.436 53.2796C302.809 53.9593 303.309 54.5607 303.91 55.0511C304.545 55.5158 305.241 55.8921 305.977 56.1699L305.981 57.5727Z" fill="#3156DB"/>
<path d="M314.039 68.5887C313.585 68.5887 312.773 68.5506 311.602 68.4743L310.837 62.3293C311.422 62.3674 312.178 62.3865 313.104 62.3865C315.032 62.3865 316.497 62.0892 317.498 61.4944C318.499 60.8997 319.32 59.6283 319.962 57.6803L308.229 27.0654H317.071L320.401 37.4929C322.159 43.1194 323.378 47.084 324.057 49.3866H324.313C326.127 43.0806 327.279 39.1344 327.77 37.548L331.087 27.0697H339.675L327.375 59.7229C326.898 61.0163 326.285 62.2558 325.548 63.4206C324.952 64.3648 324.227 65.2207 323.393 65.9634C322.613 66.6329 321.727 67.1685 320.772 67.5483C319.784 67.9457 318.751 68.2217 317.697 68.3705C316.484 68.5273 315.262 68.6003 314.039 68.5887Z" fill="#3156DB"/>
<path d="M364.962 57.5727L350.396 15.2314H359.805L364.682 30.8377C365.098 32.1599 365.938 34.9018 367.204 39.0635C368.469 43.2251 369.442 46.4036 370.124 48.5988H370.323C370.568 47.7513 370.978 46.3492 371.555 44.3927C372.132 42.4362 372.595 40.8689 372.944 39.6907C373.293 38.5126 373.732 37.078 374.261 35.3871C374.79 33.6962 375.291 32.1423 375.764 30.7254L380.752 15.2336H389.934L375.054 57.5748L364.962 57.5727Z" fill="black"/>
<path d="M405.014 58.3351C400.139 58.3351 396.252 56.8914 393.351 54.0039C390.45 51.1165 388.998 47.2374 388.997 42.3666C388.997 39.2898 389.644 36.5288 390.939 34.0835C392.202 31.6705 394.136 29.674 396.508 28.3347C398.926 26.9461 401.703 26.2525 404.84 26.2539C407.43 26.2539 409.703 26.6925 411.658 27.5698C413.539 28.3885 415.172 29.6879 416.391 31.3373C417.635 33.0616 418.547 35.0015 419.082 37.0585C419.705 39.4583 420.005 41.9303 419.975 44.4092H396.934C397.124 46.75 397.959 48.6097 399.441 49.9885C400.923 51.3672 402.817 52.0559 405.124 52.0545C407.071 52.0545 408.729 51.6349 410.099 50.7958C411.376 50.0479 412.443 48.9904 413.202 47.7212L419.805 50.3275C418.578 52.7078 416.689 54.6382 414.137 56.1186C411.585 57.5991 408.544 58.3379 405.014 58.3351ZM396.99 38.9762H411.984C411.879 37.1557 411.136 35.4304 409.885 34.1026C408.638 32.7803 406.938 32.1192 404.785 32.1192C402.632 32.1192 400.884 32.7549 399.541 34.0263C398.182 35.2807 397.332 36.9307 396.99 38.9762Z" fill="black"/>
<path d="M426.069 57.5726V32.6768C426.069 30.1341 426.05 28.2652 426.012 27.0701H433.75V28.458C433.75 29.7605 433.731 30.7231 433.693 31.3461H433.862C435.432 28.0236 438.313 26.3623 442.508 26.3623C443.086 26.3643 443.663 26.4025 444.236 26.4767L444.124 34.0944C443.425 33.8867 442.699 33.7818 441.969 33.7829C439.06 33.7829 437.028 34.6185 435.875 36.2897C434.721 37.9609 434.145 40.7593 434.146 44.685V57.5726H426.069Z" fill="black"/>
<path d="M460.449 58.3353C456.764 58.3353 453.718 57.5944 451.309 56.1125C448.9 54.6306 447.374 52.4269 446.73 49.5013L453.987 47.8866C454.572 49.4335 455.399 50.5947 456.466 51.3702C457.534 52.1458 458.973 52.5349 460.786 52.5378C462.2 52.5378 463.394 52.2637 464.37 51.7156C464.826 51.483 465.206 51.1247 465.465 50.6831C465.724 50.2415 465.851 49.7351 465.831 49.2237C465.831 48.2603 465.453 47.554 464.696 47.1048C463.94 46.6555 462.597 46.183 460.667 45.6871L457.062 44.7527C455.723 44.4013 454.407 43.9661 453.122 43.4495C452.093 43.0226 451.125 42.4611 450.244 41.7798C449.393 41.1343 448.728 40.2743 448.319 39.2879C447.887 38.1681 447.679 36.9743 447.708 35.7746C447.708 32.808 448.884 30.4814 451.237 28.7947C453.589 27.108 456.655 26.2604 460.434 26.252C463.93 26.252 466.788 26.9583 469.007 28.3709C471.227 29.7836 472.641 31.8602 473.249 34.6007L466.106 36.103C465.332 33.4769 463.405 32.1646 460.326 32.166C459.002 32.166 457.925 32.4351 457.094 32.9733C456.263 33.5115 455.847 34.2433 455.847 35.1686C455.847 36.1306 456.225 36.8369 456.981 37.2876C457.738 37.7382 459.081 38.21 461.011 38.703L464.1 39.468C467.502 40.3156 470.015 41.4061 471.641 42.7397C473.267 44.0732 474.079 46.0227 474.078 48.588C474.078 50.707 473.488 52.5053 472.307 53.9829C471.127 55.4605 469.525 56.5553 467.502 57.2673C465.484 57.9793 463.133 58.3353 460.449 58.3353Z" fill="black"/>
<path d="M494.035 58.3351C489.161 58.3351 485.273 56.8914 482.372 54.0039C479.471 51.1165 478.021 47.2374 478.022 42.3666C478.022 39.2898 478.669 36.5288 479.963 34.0835C481.226 31.6704 483.161 29.6739 485.534 28.3347C487.951 26.9461 490.729 26.2525 493.866 26.2539C496.456 26.2539 498.727 26.6925 500.681 27.5698C502.563 28.3885 504.195 29.6879 505.414 31.3373C506.658 33.062 507.571 35.0017 508.108 37.0585C508.73 39.4583 509.031 41.9303 509 44.4092H485.958C486.147 46.75 486.983 48.6097 488.466 49.9885C489.949 51.3672 491.844 52.0559 494.15 52.0545C496.095 52.0545 497.753 51.6349 499.123 50.7958C500.4 50.048 501.467 48.9905 502.227 47.7212L508.831 50.3275C507.601 52.7078 505.711 54.6382 503.162 56.1186C500.613 57.5991 497.571 58.3379 494.035 58.3351ZM486.021 38.9762H501.014C500.91 37.1559 500.167 35.4306 498.917 34.1026C497.67 32.7803 495.969 32.1192 493.815 32.1192C491.66 32.1192 489.913 32.7549 488.573 34.0263C487.207 35.2807 486.357 36.9307 486.021 38.9762Z" fill="black"/>
</g>
<defs>
<clipPath id="clip0_1168_3015">
<rect width="509" height="83" fill="white"/>
</clipPath>
</defs>
</svg>
