<svg width="12" height="15" viewBox="0 0 12 15" fill="none" xmlns="http://www.w3.org/2000/svg">
<path d="M6.167 14.3333L1.94925 9.3589C1.9253 9.33035 1.77515 9.13315 1.77515 9.13315C1.0546 8.18409 0.665309 7.02485 0.666998 5.83325C0.666998 4.37456 1.24646 2.97561 2.27791 1.94416C3.30936 0.912715 4.70831 0.333252 6.167 0.333252C7.62569 0.333252 9.02463 0.912715 10.0561 1.94416C11.0875 2.97561 11.667 4.37456 11.667 5.83325C11.6688 7.02436 11.2798 8.18317 10.5596 9.1319L10.5588 9.13315C10.5588 9.13315 10.4088 9.33035 10.3865 9.35685L6.167 14.3333ZM2.57325 8.53075C2.57375 8.5311 2.68995 8.68485 2.71655 8.71795L6.167 12.7872L9.622 8.7122C9.64395 8.6846 9.76115 8.52975 9.7614 8.52935C10.35 7.75389 10.6681 6.80681 10.667 5.83325C10.667 4.63978 10.1929 3.49518 9.34898 2.65127C8.50506 1.80736 7.36047 1.33325 6.167 1.33325C4.97352 1.33325 3.82893 1.80736 2.98502 2.65127C2.1411 3.49518 1.667 4.63978 1.667 5.83325C1.66589 6.80734 1.98424 7.75492 2.57325 8.53075Z" fill="#2F497F"/>
</svg>
