<svg width="15" height="14" viewBox="0 0 15 14" fill="none" xmlns="http://www.w3.org/2000/svg">
<path d="M7.5 0C5.65044 0.0223782 3.88293 0.767061 2.575 2.075C1.26706 3.38293 0.522378 5.15044 0.5 7C0.522378 8.84956 1.26706 10.6171 2.575 11.925C3.88293 13.2329 5.65044 13.9776 7.5 14C9.34956 13.9776 11.1171 13.2329 12.425 11.925C13.7329 10.6171 14.4776 8.84956 14.5 7C14.4776 5.15044 13.7329 3.38293 12.425 2.075C11.1171 0.767061 9.34956 0.0223782 7.5 0ZM11.5 7.5H8V11H7V7.5H3.5V6.5H7V3H8V6.5H11.5V7.5Z" fill="#3156DB"/>
</svg>
