<svg width="24" height="24" viewBox="0 0 24 24" fill="none" xmlns="http://www.w3.org/2000/svg">
<path d="M17.2498 15C16.6884 15.0028 16.1348 15.1316 15.6298 15.377C15.1249 15.6223 14.6815 15.9779 14.3323 16.4175L8.84977 12.99C9.04958 12.3451 9.04958 11.6548 8.84977 11.01L14.3323 7.58247C14.8887 8.27151 15.6711 8.74135 16.5408 8.90878C17.4105 9.0762 18.3114 8.93039 19.0839 8.49719C19.8564 8.06398 20.4506 7.37134 20.7614 6.54196C21.0721 5.71257 21.0792 4.79998 20.7815 3.96584C20.4838 3.13171 19.9004 2.42986 19.1348 1.98464C18.3692 1.53942 17.4707 1.37956 16.5984 1.53337C15.7262 1.68719 14.9366 2.14475 14.3694 2.82501C13.8023 3.50527 13.4942 4.36431 13.4998 5.24997C13.5033 5.58535 13.5538 5.91859 13.6498 6.23997L8.16727 9.66747C7.68326 9.05816 7.02168 8.61451 6.27424 8.39802C5.5268 8.18153 4.73052 8.20292 3.99578 8.45923C3.26104 8.71554 2.62424 9.19407 2.17364 9.8285C1.72304 10.4629 1.48096 11.2218 1.48096 12C1.48096 12.7781 1.72304 13.537 2.17364 14.1714C2.62424 14.8059 3.26104 15.2844 3.99578 15.5407C4.73052 15.797 5.5268 15.8184 6.27424 15.6019C7.02168 15.3854 7.68326 14.9418 8.16727 14.3325L13.6498 17.76C13.5538 18.0814 13.5033 18.4146 13.4998 18.75C13.4998 19.4916 13.7197 20.2167 14.1318 20.8334C14.5438 21.45 15.1295 21.9307 15.8147 22.2145C16.4999 22.4983 17.2539 22.5726 17.9814 22.4279C18.7088 22.2832 19.377 21.9261 19.9014 21.4016C20.4259 20.8772 20.783 20.209 20.9277 19.4816C21.0724 18.7541 20.9981 18.0001 20.7143 17.3149C20.4305 16.6297 19.9498 16.044 19.3332 15.632C18.7165 15.2199 17.9915 15 17.2498 15ZM17.2498 2.99997C17.6948 2.99997 18.1298 3.13193 18.4998 3.37916C18.8698 3.6264 19.1582 3.9778 19.3285 4.38893C19.4988 4.80007 19.5434 5.25247 19.4565 5.68892C19.3697 6.12538 19.1554 6.52629 18.8408 6.84096C18.5261 7.15563 18.1252 7.36992 17.6887 7.45674C17.2523 7.54355 16.7999 7.499 16.3887 7.3287C15.9776 7.1584 15.6262 6.87001 15.379 6.5C15.1317 6.12999 14.9998 5.69498 14.9998 5.24997C14.9998 4.65323 15.2368 4.08094 15.6588 3.65898C16.0807 3.23702 16.653 2.99997 17.2498 2.99997ZM5.24977 14.25C4.80476 14.25 4.36975 14.118 3.99974 13.8708C3.62973 13.6235 3.34134 13.2721 3.17104 12.861C3.00075 12.4499 2.95619 11.9975 3.04301 11.561C3.12982 11.1246 3.34411 10.7236 3.65878 10.409C3.97345 10.0943 4.37436 9.88002 4.81082 9.7932C5.24728 9.70639 5.69968 9.75094 6.11081 9.92124C6.52194 10.0915 6.87335 10.3799 7.12058 10.7499C7.36781 11.1199 7.49977 11.555 7.49977 12C7.49977 12.5967 7.26272 13.169 6.84076 13.591C6.41881 14.0129 5.84651 14.25 5.24977 14.25ZM17.2498 21C16.8048 21 16.3698 20.868 15.9997 20.6208C15.6297 20.3735 15.3413 20.0221 15.171 19.611C15.0007 19.1999 14.9562 18.7475 15.043 18.311C15.1298 17.8746 15.3441 17.4736 15.6588 17.159C15.9734 16.8443 16.3744 16.63 16.8108 16.5432C17.2473 16.4564 17.6997 16.5009 18.1108 16.6712C18.5219 16.8415 18.8733 17.1299 19.1206 17.4999C19.3678 17.8699 19.4998 18.305 19.4998 18.75C19.4998 19.3467 19.2627 19.919 18.8408 20.341C18.4188 20.7629 17.8465 21 17.2498 21Z" fill="#F6FAFF"/>
</svg>
