<svg width="14" height="15" viewBox="0 0 14 15" fill="none" xmlns="http://www.w3.org/2000/svg">
<path d="M10.994 9.5001C10.6197 9.50198 10.2507 9.58787 9.91403 9.75143C9.57739 9.91499 9.28178 10.152 9.04899 10.4451L5.39399 8.1601C5.5272 7.73018 5.5272 7.27002 5.39399 6.8401L9.04899 4.5551C9.41996 5.01446 9.94155 5.32769 10.5213 5.43931C11.1012 5.55092 11.7018 5.45372 12.2167 5.16491C12.7317 4.87611 13.1279 4.41435 13.335 3.86143C13.5422 3.3085 13.5469 2.70011 13.3485 2.14402C13.15 1.58793 12.7611 1.12003 12.2507 0.823217C11.7402 0.526403 11.1412 0.419827 10.5598 0.52237C9.97829 0.624913 9.45187 0.929956 9.07377 1.38346C8.69566 1.83697 8.49027 2.40966 8.49399 3.0001C8.49635 3.22369 8.53001 3.44585 8.59399 3.6601L4.93899 5.9451C4.61631 5.53889 4.17526 5.24313 3.67696 5.0988C3.17867 4.95447 2.64782 4.96873 2.15799 5.13961C1.66817 5.31048 1.24363 5.6295 0.943232 6.05245C0.642831 6.4754 0.481445 6.98133 0.481445 7.5001C0.481445 8.01888 0.642831 8.5248 0.943232 8.94775C1.24363 9.3707 1.66817 9.68972 2.15799 9.8606C2.64782 10.0315 3.17867 10.0457 3.67696 9.9014C4.17526 9.75708 4.61631 9.46131 4.93899 9.0551L8.59399 11.3401C8.53001 11.5544 8.49635 11.7765 8.49399 12.0001C8.49399 12.4946 8.64061 12.9779 8.91531 13.389C9.19002 13.8002 9.58046 14.1206 10.0373 14.3098C10.4941 14.499 10.9968 14.5485 11.4817 14.4521C11.9667 14.3556 12.4121 14.1175 12.7618 13.7679C13.1114 13.4182 13.3495 12.9728 13.446 12.4878C13.5424 12.0029 13.4929 11.5002 13.3037 11.0434C13.1145 10.5866 12.794 10.1961 12.3829 9.92143C11.9718 9.64672 11.4884 9.5001 10.994 9.5001ZM10.994 1.5001C11.2907 1.5001 11.5807 1.58808 11.8273 1.7529C12.074 1.91772 12.2663 2.15199 12.3798 2.42608C12.4933 2.70017 12.523 3.00177 12.4652 3.29274C12.4073 3.58371 12.2644 3.85098 12.0546 4.06076C11.8449 4.27054 11.5776 4.4134 11.2866 4.47128C10.9957 4.52916 10.6941 4.49945 10.42 4.38592C10.1459 4.27239 9.9116 4.08013 9.74678 3.83346C9.58196 3.58678 9.49399 3.29677 9.49399 3.0001C9.49399 2.60228 9.65202 2.22075 9.93333 1.93944C10.2146 1.65814 10.5962 1.5001 10.994 1.5001ZM2.99399 9.0001C2.69732 9.0001 2.40731 8.91213 2.16063 8.74731C1.91396 8.58248 1.7217 8.34822 1.60817 8.07413C1.49464 7.80004 1.46493 7.49844 1.52281 7.20747C1.58069 6.9165 1.72355 6.64922 1.93333 6.43944C2.14311 6.22966 2.41038 6.0868 2.70135 6.02892C2.99232 5.97105 3.29392 6.00075 3.56801 6.11428C3.8421 6.22781 4.07637 6.42007 4.24119 6.66675C4.40601 6.91342 4.49399 7.20343 4.49399 7.5001C4.49399 7.89793 4.33595 8.27946 4.05465 8.56076C3.77334 8.84207 3.39181 9.0001 2.99399 9.0001ZM10.994 13.5001C10.6973 13.5001 10.4073 13.4121 10.1606 13.2473C9.91396 13.0825 9.7217 12.8482 9.60817 12.5741C9.49464 12.3 9.46493 11.9984 9.52281 11.7075C9.58069 11.4165 9.72355 11.1492 9.93333 10.9394C10.1431 10.7297 10.4104 10.5868 10.7014 10.5289C10.9923 10.471 11.2939 10.5008 11.568 10.6143C11.8421 10.7278 12.0764 10.9201 12.2412 11.1667C12.406 11.4134 12.494 11.7034 12.494 12.0001C12.494 12.3979 12.336 12.7795 12.0546 13.0608C11.7733 13.3421 11.3918 13.5001 10.994 13.5001Z" fill="#002169"/>
</svg>
