<svg width="12" height="13" viewBox="0 0 12 13" fill="none" xmlns="http://www.w3.org/2000/svg">
<path d="M6 0.827637C4.81331 0.827637 3.65328 1.17953 2.66658 1.83882C1.67989 2.49811 0.910851 3.43518 0.456725 4.53154C0.0025997 5.62789 -0.11622 6.83429 0.115291 7.99818C0.346802 9.16206 0.918247 10.2312 1.75736 11.0703C2.59648 11.9094 3.66557 12.4808 4.82946 12.7123C5.99335 12.9439 7.19975 12.825 8.2961 12.3709C9.39246 11.9168 10.3295 11.1478 10.9888 10.1611C11.6481 9.17436 12 8.01432 12 6.82764C12 5.23634 11.3679 3.71021 10.2426 2.585C9.11742 1.45978 7.5913 0.827637 6 0.827637ZM5.14286 9.22369L3 7.08084L3.68169 6.39906L5.14286 7.86015L8.31857 4.68478L9.00244 5.36445L5.14286 9.22369Z" fill="#A7B2C8"/>
</svg>
