<svg width="1920" height="1008" viewBox="0 0 1920 1008" fill="none" xmlns="http://www.w3.org/2000/svg">
<mask id="mask0_33_286" style="mask-type:alpha" maskUnits="userSpaceOnUse" x="0" y="0" width="1920" height="1008">
<rect width="1920" height="1008" fill="#EFFFF9"/>
</mask>
<g mask="url(#mask0_33_286)">
<path opacity="0.18" d="M266.604 -61.794L101.731 -50.2974L13.9998 63.5702L199.956 190.024L285.462 80.2938L266.604 -61.794Z" fill="#94DFC4"/>
<path opacity="0.18" d="M300.045 192.096C309.794 166.271 336.047 114.901 363.067 116.018C390.086 117.135 374.325 168.83 363.067 194.538C381.057 185.465 426.159 170.738 462.649 184.418C508.262 201.518 448.025 236.416 405.546 241.651C387.44 241.651 383.61 244.21 383.958 245.49C420.402 244.21 491.757 250.096 485.629 283.878C459.704 320.255 392.601 306.761 380.728 297.686C393.684 307.938 418.554 333.291 416.34 354.372C413.554 380.894 391.27 397.296 359.237 382.29C333.61 370.285 327.9 335.178 328.248 319.125C320.588 339.831 297.747 382.22 267.663 386.129C230.059 391.015 230.755 366.586 234.585 355.07C241.433 334.48 266.619 307.259 280.546 297.488C261.86 304.933 216.828 317.589 186.187 308.655C147.886 297.488 172.608 263.986 190.714 257.006C208.819 250.026 242.245 247.235 258.61 254.214C242.942 232.926 240.156 220.712 233.541 200.122C230.059 186.396 226.995 157.965 242.594 154.057C262.092 149.171 284.028 173.6 292.036 185.814C296.421 192.502 298.012 195.212 298.393 196.07L300.045 192.096Z" fill="#94DFC4"/>
<path opacity="0.18" d="M116.277 194.284C81.9818 189.814 51.9654 214.347 51.9654 214.347C51.9654 214.347 50.7986 205.21 23.2077 190.281C-4.3832 175.353 -42.0694 188.287 -57.4636 196.62L-83.1577 351.274C-83.1577 351.274 -37.7678 333.375 -15.6708 340.21C6.4263 347.046 17.9206 353.761 35.009 376.681C96.5897 325.244 117.362 344.902 147.718 364.27L172.147 220.087C168.348 214.103 148.885 198.534 116.277 194.284Z" fill="#94DFC4"/>
</g>
</svg>
