<svg width="22" height="22" viewBox="0 0 22 22" fill="none" xmlns="http://www.w3.org/2000/svg">
<g clip-path="url(#clip0_255_700)">
<path d="M8.375 3.125C9.02397 3.125 9.65837 3.31744 10.198 3.67799C10.7376 4.03854 11.1581 4.551 11.4065 5.15057C11.6548 5.75014 11.7198 6.40989 11.5932 7.04639C11.4666 7.68289 11.1541 8.26755 10.6952 8.72644C10.2363 9.18533 9.65164 9.49784 9.01514 9.62445C8.37864 9.75106 7.71889 9.68608 7.11932 9.43773C6.51975 9.18938 6.00729 8.76881 5.64674 8.22921C5.28619 7.68962 5.09375 7.05522 5.09375 6.40625C5.09375 5.53601 5.43945 4.70141 6.05481 4.08606C6.67016 3.4707 7.50476 3.125 8.375 3.125ZM8.375 1.8125C7.46644 1.8125 6.57829 2.08192 5.82285 2.58669C5.06741 3.09145 4.47862 3.8089 4.13093 4.6483C3.78324 5.4877 3.69227 6.41135 3.86952 7.30245C4.04677 8.19355 4.48428 9.01207 5.12673 9.65452C5.76918 10.297 6.58771 10.7345 7.47881 10.9117C8.36991 11.089 9.29356 10.998 10.133 10.6503C10.9724 10.3026 11.6898 9.71384 12.1946 8.9584C12.6993 8.20296 12.9688 7.31481 12.9688 6.40625C12.9688 5.18791 12.4848 4.01947 11.6233 3.15798C10.7618 2.29648 9.59334 1.8125 8.375 1.8125Z" fill="#52BFD6"/>
<path d="M14.9375 20.1875H13.625V16.9062C13.625 16.036 13.2793 15.2014 12.6639 14.5861C12.0486 13.9707 11.214 13.625 10.3438 13.625H6.40625C5.53601 13.625 4.70141 13.9707 4.08606 14.5861C3.4707 15.2014 3.125 16.036 3.125 16.9062V20.1875H1.8125V16.9062C1.8125 15.6879 2.29648 14.5195 3.15798 13.658C4.01947 12.7965 5.18791 12.3125 6.40625 12.3125H10.3438C11.5621 12.3125 12.7305 12.7965 13.592 13.658C14.4535 14.5195 14.9375 15.6879 14.9375 16.9062V20.1875Z" fill="#52BFD6"/>
<path d="M16.9062 11.1181L15.2066 9.41846L14.2812 10.3438L16.9062 12.9688L21.5 8.37502L20.5747 7.44971L16.9062 11.1181Z" fill="#52BFD6"/>
</g>
<defs>
<clipPath id="clip0_255_700">
<rect width="21" height="21" fill="white" transform="translate(0.5 0.5)"/>
</clipPath>
</defs>
</svg>
