<svg width="25" height="25" viewBox="0 0 25 25" fill="none" xmlns="http://www.w3.org/2000/svg">
<path d="M19.25 7.95996L20.4448 10.21L23 10.5205L21.125 12.2102L21.5 14.71L19.25 13.3037L17 14.71L17.375 12.2102L15.5 10.5205L18.125 10.21L19.25 7.95996Z" fill="black"/>
<path d="M17 22.96H15.5V19.21C15.4988 18.2158 15.1034 17.2626 14.4004 16.5596C13.6973 15.8566 12.7442 15.4611 11.75 15.46H7.25C6.2558 15.4611 5.30265 15.8566 4.59964 16.5596C3.89664 17.2626 3.50117 18.2158 3.5 19.21V22.96H2V19.21C2.00163 17.8181 2.55527 16.4837 3.53949 15.4994C4.5237 14.5152 5.85811 13.9616 7.25 13.96H11.75C13.1419 13.9616 14.4763 14.5152 15.4605 15.4994C16.4447 16.4837 16.9984 17.8181 17 19.21V22.96Z" fill="black"/>
<path d="M9.5 3.45996C10.2417 3.45996 10.9667 3.67989 11.5834 4.09195C12.2001 4.50401 12.6807 5.08967 12.9646 5.7749C13.2484 6.46012 13.3226 7.21412 13.1779 7.94155C13.0333 8.66898 12.6761 9.33716 12.1517 9.86161C11.6272 10.3861 10.959 10.7432 10.2316 10.8879C9.50416 11.0326 8.75016 10.9583 8.06494 10.6745C7.37972 10.3907 6.79405 9.91003 6.38199 9.29335C5.96994 8.67666 5.75 7.95164 5.75 7.20996C5.75 6.2154 6.14509 5.26157 6.84835 4.55831C7.55161 3.85505 8.50544 3.45996 9.5 3.45996ZM9.5 1.95996C8.46165 1.95996 7.44662 2.26787 6.58326 2.84475C5.7199 3.42162 5.04699 4.24156 4.64963 5.20087C4.25227 6.16018 4.14831 7.21578 4.35088 8.23419C4.55345 9.25259 5.05347 10.188 5.78769 10.9223C6.52192 11.6565 7.45738 12.1565 8.47578 12.3591C9.49418 12.5617 10.5498 12.4577 11.5091 12.0603C12.4684 11.663 13.2883 10.9901 13.8652 10.1267C14.4421 9.26335 14.75 8.24831 14.75 7.20996C14.75 5.81757 14.1969 4.48222 13.2123 3.49765C12.2277 2.51308 10.8924 1.95996 9.5 1.95996Z" fill="black"/>
</svg>
